<svg width="24" height="24" viewBox="0 0 22 17" fill="none" xmlns="http://www.w3.org/2000/svg">
<path d="M17.4382 16.9358C18.2481 16.9358 18.9381 16.6483 19.5084 16.0733C20.0786 15.4983 20.3637 14.8025 20.3637 13.9858H22V2.46082C22 2.06082 21.8512 1.71082 21.5537 1.41082C21.2562 1.11082 20.9091 0.960815 20.5125 0.960815H6.15765V5.13582H3.55445L0.182684 9.66082V13.9858H1.94294C1.94294 14.8025 2.22806 15.4983 2.79828 16.0733C3.36851 16.6483 4.05856 16.9358 4.86845 16.9358C5.67833 16.9358 6.36839 16.6483 6.93861 16.0733C7.50884 15.4983 7.79395 14.8025 7.79395 13.9858H14.5127C14.5127 14.8025 14.7978 15.4983 15.368 16.0733C15.9383 16.6483 16.6283 16.9358 17.4382 16.9358ZM17.4382 15.4358C17.0415 15.4358 16.7027 15.2941 16.4217 15.0108C16.1407 14.7275 16.0002 14.3858 16.0002 13.9858C16.0002 13.5858 16.1407 13.2441 16.4217 12.9608C16.7027 12.6775 17.0415 12.5358 17.4382 12.5358C17.8349 12.5358 18.1737 12.6775 18.4547 12.9608C18.7357 13.2441 18.8762 13.5858 18.8762 13.9858C18.8762 14.3858 18.7357 14.7275 18.4547 15.0108C18.1737 15.2941 17.8349 15.4358 17.4382 15.4358ZM20.5125 12.4858H19.967C19.686 12.0358 19.3307 11.6775 18.9009 11.4108C18.4712 11.1441 17.9919 11.0108 17.463 11.0108C16.9341 11.0108 16.4506 11.1483 16.0126 11.4233C15.5746 11.6983 15.2151 12.0525 14.9342 12.4858H7.6452V2.46082H20.5125V12.4858ZM4.86845 15.4358C4.47177 15.4358 4.13294 15.2941 3.85196 15.0108C3.57098 14.7275 3.43049 14.3858 3.43049 13.9858C3.43049 13.5858 3.57098 13.2441 3.85196 12.9608C4.13294 12.6775 4.47177 12.5358 4.86845 12.5358C5.26513 12.5358 5.60396 12.6775 5.88494 12.9608C6.16592 13.2441 6.30641 13.5858 6.30641 13.9858C6.30641 14.3858 6.16592 14.7275 5.88494 15.0108C5.60396 15.2941 5.26513 15.4358 4.86845 15.4358ZM6.15765 10.3358H1.54627L4.29822 6.63582H6.15765V10.3358Z" fill="white"/>
</svg>
