<svg width="24" height="24" viewBox="0 0 30 30" fill="none" xmlns="http://www.w3.org/2000/svg">
<path d="M6.9375 22.0313C8.25 21.1146 9.55208 20.4115 10.8438 19.9219C12.1354 19.4323 13.5208 19.1875 15 19.1875C16.4792 19.1875 17.8698 19.4323 19.1719 19.9219C20.474 20.4115 21.7813 21.1146 23.0938 22.0313C24.0104 20.9063 24.6615 19.7708 25.0469 18.625C25.4323 17.4792 25.625 16.2708 25.625 15C25.625 11.9792 24.6094 9.45313 22.5781 7.42188C20.5469 5.39063 18.0208 4.375 15 4.375C11.9792 4.375 9.45313 5.39063 7.42188 7.42188C5.39063 9.45313 4.375 11.9792 4.375 15C4.375 16.2708 4.57292 17.4792 4.96875 18.625C5.36458 19.7708 6.02083 20.9063 6.9375 22.0313ZM15 15.9375C13.7917 15.9375 12.776 15.526 11.9531 14.7031C11.1302 13.8802 10.7188 12.8646 10.7188 11.6563C10.7188 10.4479 11.1302 9.43229 11.9531 8.60938C12.776 7.78646 13.7917 7.375 15 7.375C16.2083 7.375 17.224 7.78646 18.0469 8.60938C18.8698 9.43229 19.2813 10.4479 19.2813 11.6563C19.2813 12.8646 18.8698 13.8802 18.0469 14.7031C17.224 15.526 16.2083 15.9375 15 15.9375ZM15 27.5C13.2917 27.5 11.6771 27.1719 10.1563 26.5156C8.63542 25.8594 7.30729 24.9635 6.17188 23.8281C5.03646 22.6927 4.14063 21.3646 3.48438 19.8438C2.82812 18.3229 2.5 16.7083 2.5 15C2.5 13.2708 2.82812 11.651 3.48438 10.1406C4.14063 8.63021 5.03646 7.30729 6.17188 6.17188C7.30729 5.03646 8.63542 4.14063 10.1563 3.48438C11.6771 2.82812 13.2917 2.5 15 2.5C16.7292 2.5 18.349 2.82812 19.8594 3.48438C21.3698 4.14063 22.6927 5.03646 23.8281 6.17188C24.9635 7.30729 25.8594 8.63021 26.5156 10.1406C27.1719 11.651 27.5 13.2708 27.5 15C27.5 16.7083 27.1719 18.3229 26.5156 19.8438C25.8594 21.3646 24.9635 22.6927 23.8281 23.8281C22.6927 24.9635 21.3698 25.8594 19.8594 26.5156C18.349 27.1719 16.7292 27.5 15 27.5ZM15 25.625C16.1458 25.625 17.2656 25.4583 18.3594 25.125C19.4531 24.7917 20.5313 24.2083 21.5938 23.375C20.5313 22.625 19.4479 22.0521 18.3438 21.6563C17.2396 21.2604 16.125 21.0625 15 21.0625C13.875 21.0625 12.7604 21.2604 11.6563 21.6563C10.5521 22.0521 9.46875 22.625 8.40625 23.375C9.46875 24.2083 10.5469 24.7917 11.6406 25.125C12.7344 25.4583 13.8542 25.625 15 25.625ZM15 14.0625C15.7083 14.0625 16.2865 13.8385 16.7344 13.3906C17.1823 12.9427 17.4063 12.3646 17.4063 11.6563C17.4063 10.9479 17.1823 10.3698 16.7344 9.92188C16.2865 9.47396 15.7083 9.25 15 9.25C14.2917 9.25 13.7135 9.47396 13.2656 9.92188C12.8177 10.3698 12.5938 10.9479 12.5938 11.6563C12.5938 12.3646 12.8177 12.9427 13.2656 13.3906C13.7135 13.8385 14.2917 14.0625 15 14.0625Z" fill="#353535"/>
</svg>
