<svg width="24" height="24" viewBox="0 0 30 30" fill="none" xmlns="http://www.w3.org/2000/svg">
<path d="M24.875 26.2188L16.6562 18C16.0312 18.5417 15.3021 18.9635 14.4687 19.2656C13.6354 19.5677 12.75 19.7187 11.8125 19.7187C9.5625 19.7187 7.65625 18.9375 6.09375 17.375C4.53125 15.8125 3.75 13.9271 3.75 11.7188C3.75 9.51042 4.53125 7.625 6.09375 6.0625C7.65625 4.5 9.55208 3.71875 11.7813 3.71875C13.9896 3.71875 15.8698 4.5 17.4219 6.0625C18.974 7.625 19.75 9.51042 19.75 11.7188C19.75 12.6146 19.6042 13.4792 19.3125 14.3125C19.0208 15.1458 18.5833 15.9271 18 16.6563L26.25 24.8437L24.875 26.2188ZM11.7813 17.8437C13.4688 17.8437 14.9063 17.2448 16.0938 16.0469C17.2812 14.849 17.875 13.4063 17.875 11.7188C17.875 10.0313 17.2812 8.58854 16.0938 7.39062C14.9063 6.19271 13.4688 5.59375 11.7813 5.59375C10.0729 5.59375 8.61979 6.19271 7.42188 7.39062C6.22396 8.58854 5.625 10.0313 5.625 11.7188C5.625 13.4063 6.22396 14.849 7.42188 16.0469C8.61979 17.2448 10.0729 17.8437 11.7813 17.8437V17.8437Z" fill="#353535"/>
</svg>
